<?xml version="1.0" standalone="no"?>
<!DOCTYPE svg PUBLIC "-//W3C//DTD SVG 20010904//EN"
 "http://www.w3.org/TR/2001/REC-SVG-20010904/DTD/svg10.dtd">
<svg version="1.0" xmlns="http://www.w3.org/2000/svg"
 width="256.000000pt" height="256.000000pt" viewBox="0 0 256.000000 256.000000"
 preserveAspectRatio="xMidYMid meet">
<metadata>
Created by potrace 1.16, written by Peter Selinger 2001-2019
</metadata>
<g transform="translate(0.000000,256.000000) scale(0.100000,-0.100000)"
fill="#000000" stroke="none">
<path d="M1214 2486 c-12 -9 -23 -11 -30 -5 -7 6 -27 -3 -57 -26 -25 -19 -57
-39 -71 -45 -15 -5 -26 -14 -26 -20 0 -22 117 21 174 65 l35 27 118 -95 c65
-53 156 -127 203 -166 l85 -70 173 -1 c108 0 172 4 172 10 0 6 -64 10 -173 10
l-173 0 -70 58 c-86 73 -334 272 -337 272 -2 0 -12 -6 -23 -14z"/>
<path d="M620 2346 c0 -7 10 -16 23 -19 12 -3 99 -25 194 -49 118 -31 186 -44
220 -42 l48 3 -40 -10 c-22 -6 -52 -8 -67 -6 -15 2 -25 0 -22 -5 3 -5 -19 -7
-50 -6 -57 2 -81 -7 -56 -22 7 -5 51 -14 97 -21 46 -7 83 -14 83 -17 0 -3 -11
-19 -24 -36 -120 -158 -141 -405 -50 -593 38 -78 62 -93 150 -93 46 0 74 -4
74 -11 0 -5 4 -8 9 -5 8 5 99 -91 149 -158 38 -51 71 -124 65 -148 -3 -16 -2
-19 5 -10 7 10 11 5 16 -18 7 -38 7 -91 -1 -72 -2 6 -8 10 -13 7 -8 -5 -14 14
-26 95 -10 68 -23 84 -24 28 0 -52 -40 -189 -75 -258 -26 -51 -115 -160 -247
-303 -50 -54 -88 -101 -84 -104 5 -6 116 9 209 29 46 9 53 16 183 171 145 175
199 248 209 287 4 18 -1 14 -17 -14 -13 -21 -33 -45 -45 -53 -21 -14 -21 -12
6 44 30 61 56 191 46 224 -8 23 -25 25 -25 3 0 -11 -5 -14 -16 -10 -9 3 -20 6
-25 6 -6 0 -8 4 -4 9 3 5 1 12 -4 15 -6 4 -8 -10 -6 -34 3 -25 1 -38 -5 -35
-6 3 -10 18 -10 33 -1 58 -67 158 -193 292 -180 190 -231 278 -232 400 0 70
11 138 20 128 3 -2 1 -27 -4 -56 -4 -28 -4 -53 0 -54 4 -2 13 -34 19 -73 7
-43 21 -87 38 -114 26 -43 90 -90 123 -91 9 0 19 -9 22 -21 3 -12 10 -18 16
-15 6 4 -8 34 -37 74 -44 62 -47 71 -47 129 0 34 5 67 10 72 7 7 10 -3 8 -32
-2 -32 0 -36 5 -17 11 34 112 111 154 116 18 2 62 9 98 15 63 12 69 11 123
-14 31 -14 57 -24 57 -22 0 2 -21 16 -46 31 -44 26 -49 27 -145 20 -74 -5 -99
-4 -99 5 0 7 -8 5 -20 -6 -16 -14 -20 -15 -24 -4 -2 8 -7 22 -10 31 -3 10 -1
20 4 23 6 4 10 1 10 -4 0 -21 46 -10 80 19 41 34 23 40 -27 9 l-35 -22 -26 28
c-15 15 -20 24 -12 20 8 -4 5 2 -7 14 -13 12 -23 26 -23 32 0 6 -4 8 -9 4 -5
-3 -12 -1 -16 4 -11 19 91 2 175 -29 119 -45 132 -46 79 -11 -28 19 -78 39
-130 51 -159 39 -144 30 -146 80 -4 72 -7 90 -16 90 -4 0 -6 4 -3 9 3 5 -31
12 -77 16 -79 8 -81 9 -52 21 17 7 24 13 16 14 -86 2 -338 35 -343 43 -5 8 -8
8 -8 1 0 -7 -15 -8 -47 -3 -68 11 -73 11 -73 -5z"/>
<path d="M600 2043 c-110 -112 -117 -120 -27 -33 64 63 117 112 117 109 0 -11
-232 -234 -240 -232 -4 1 -14 -5 -22 -14 -11 -14 -11 -16 2 -8 13 8 13 6 1 -8
-7 -9 -17 -15 -21 -12 -5 3 -19 -9 -31 -27 -12 -18 -28 -38 -35 -44 -10 -8
-13 -110 -16 -455 -2 -244 -8 -452 -12 -462 -17 -35 13 -16 49 33 l36 50 -2
396 -2 396 202 202 c110 110 201 208 201 216 -1 41 -17 42 -57 6 -52 -46 -67
-47 -23 -1 19 19 32 35 29 35 -2 0 -69 -66 -149 -147z"/>
<path d="M2551 1679 c-1 -9 -16 -31 -33 -49 -30 -29 -38 -31 -81 -27 -44 4
-49 2 -69 -27 -12 -17 -41 -55 -66 -83 -41 -51 -46 -53 -92 -53 -27 0 -50 5
-52 11 -3 8 -21 2 -53 -14 -26 -14 -51 -24 -55 -22 -3 2 -39 -34 -79 -80 -41
-47 -77 -83 -81 -80 -4 2 -20 -10 -36 -28 -16 -18 -19 -24 -6 -13 12 11 22 15
22 9 0 -13 -55 -65 -62 -58 -3 3 -11 -3 -19 -12 -13 -16 -12 -17 4 -4 9 7 17
9 17 4 0 -13 -45 -55 -52 -48 -3 3 -11 -3 -19 -12 -13 -16 -12 -17 4 -4 9 7
17 9 17 4 0 -15 -36 -44 -44 -36 -4 4 -6 -50 -5 -121 1 -113 -1 -130 -17 -145
-17 -15 -18 -15 -4 5 8 11 3 7 -12 -10 -15 -16 -24 -34 -21 -39 3 -6 1 -7 -4
-4 -6 4 -28 -15 -49 -41 -22 -26 -114 -136 -206 -245 -93 -108 -168 -203 -168
-211 0 -13 31 -46 43 -46 7 0 272 316 420 501 l77 96 0 112 0 111 171 200 171
200 77 0 77 0 64 85 c64 83 65 84 101 79 24 -4 47 -1 67 10 33 17 67 69 58 89
-2 7 -5 5 -5 -4z"/>
<path d="M1983 1538 c-91 -98 -103 -109 -114 -103 -6 4 -18 -1 -27 -11 -98
-109 -111 -126 -105 -142 6 -15 3 -14 -15 2 -26 23 -28 15 -6 -19 22 -34 34
-31 69 13 16 20 77 93 135 160 102 120 126 152 116 152 -2 0 -26 -23 -53 -52z"/>
<path d="M852 1408 c-7 -7 -18 -13 -25 -13 -7 0 -11 -8 -9 -17 1 -9 -3 -20 -9
-24 -8 -5 -10 -2 -5 7 4 8 -2 3 -13 -10 -12 -12 -18 -27 -15 -32 3 -5 1 -8 -4
-7 -6 2 -28 -21 -50 -49 -21 -29 -43 -49 -47 -45 -5 4 -5 2 -1 -5 3 -6 2 -14
-4 -18 -6 -4 -8 -11 -4 -16 3 -5 -10 -25 -30 -43 -20 -18 -36 -40 -36 -49 0
-9 -4 -16 -9 -15 -5 2 -49 -49 -98 -112 -49 -63 -133 -171 -186 -239 -117
-148 -161 -210 -153 -218 3 -3 37 14 77 37 56 34 85 62 138 129 36 47 114 147
173 221 59 74 158 203 220 285 l113 150 153 3 c99 2 152 -1 152 -8 0 -5 7 -10
16 -10 15 0 15 2 2 23 -12 17 -27 23 -74 27 -37 3 -58 9 -57 17 1 6 -4 14 -12
17 -8 3 -15 0 -15 -6 0 -6 -5 -7 -12 -1 -7 5 -40 10 -73 12 -33 1 -64 7 -69
12 -13 12 -20 11 -34 -3z"/>
<path d="M2392 1345 c-16 -13 -32 -21 -36 -18 -4 4 -4 0 0 -10 5 -15 -3 -17
-84 -17 l-90 0 -69 -77 c-161 -183 -226 -252 -233 -248 -4 3 -14 -3 -21 -13
-13 -15 -12 -16 4 -3 9 7 17 9 17 4 0 -15 -36 -44 -43 -36 -4 3 -7 -39 -7 -95
0 -57 -4 -104 -10 -107 -6 -4 -8 -10 -5 -15 3 -5 0 -12 -6 -16 -8 -5 -9 -3 -4
7 5 8 -1 5 -13 -5 -24 -21 -29 -31 -9 -20 6 4 -9 -12 -34 -37 -58 -55 -450
-500 -423 -479 11 8 6 2 -10 -13 -17 -16 -30 -33 -28 -38 1 -6 -2 -8 -7 -5 -5
4 -11 0 -14 -6 -5 -15 -83 44 -80 60 1 6 -5 16 -14 24 -12 9 -15 9 -9 0 4 -6
3 -12 -2 -12 -11 0 -51 42 -51 53 1 5 -3 12 -7 15 -4 4 -4 1 0 -5 4 -7 3 -13
-2 -13 -10 0 -63 54 -65 67 -1 4 -6 7 -12 5 -11 -2 -60 44 -60 56 0 4 -4 6 -9
4 -12 -4 -57 39 -51 49 3 4 0 11 -6 15 -8 4 -9 3 -5 -4 13 -21 -10 -13 -32 11
-12 13 -19 27 -15 31 4 4 -1 4 -11 0 -13 -5 -17 -4 -12 4 5 8 -8 11 -42 9 -29
-1 -47 -6 -45 -12 8 -16 511 -450 526 -453 12 -3 178 180 495 546 l132 153 0
95 0 94 157 180 158 180 66 0 c64 0 67 -1 79 -29 17 -42 43 -62 87 -68 46 -6
88 22 109 73 16 38 19 78 5 69 -5 -3 -12 4 -16 15 -9 29 -54 60 -86 60 -15 0
-41 -11 -57 -25z"/>
<path d="M920 1291 c-8 -5 -17 -8 -21 -5 -6 3 -105 -106 -217 -241 -84 -102
-341 -449 -337 -456 6 -9 209 45 238 64 13 8 79 81 146 161 124 146 151 167
210 165 23 0 21 -2 -15 -17 -28 -12 -87 -64 -189 -170 -82 -85 -165 -162 -185
-172 -19 -10 -62 -23 -95 -29 -33 -6 -61 -15 -63 -21 -2 -5 -9 -7 -15 -5 -14
4 -370 -420 -365 -436 2 -6 67 22 145 62 l141 72 99 124 c128 161 180 195 366
237 15 4 54 30 85 59 71 65 262 220 262 212 0 -6 -169 -195 -254 -283 l-60
-62 -101 0 -100 0 -104 -117 c-142 -158 -153 -171 -149 -184 6 -18 154 87 223
159 l66 70 130 4 129 4 86 84 c47 47 138 141 201 210 124 132 157 188 167 275
5 43 4 46 -4 18 -18 -57 -30 -48 -23 17 5 47 3 64 -8 70 -15 10 -39 -6 -39
-26 0 -7 -4 -16 -10 -19 -5 -3 -7 0 -4 9 6 15 -24 76 -37 76 -4 0 -5 10 -3 23
5 21 5 21 -13 -3 -10 -14 -31 -38 -47 -55 l-29 -30 27 37 c48 68 28 92 -89
109 -33 4 -76 11 -95 14 -19 3 -42 1 -50 -4z"/>
</g>
</svg>
